<?xml version="1.0" encoding="UTF-8"?>
<svg id="Layer_1" data-name="Layer 1" xmlns="http://www.w3.org/2000/svg" viewBox="0 0 32 32">
  <defs>
    <style>
      .cls-1 {
        fill: #fff;
      }
    </style>
  </defs>
  <path class="cls-1" d="m30.39,22.76c-.01,2.89-1.01,5.15-3.25,6.58-2.2,1.41-4.61,2.47-7.29,2.64-1.13.07-2.2-.18-3.24-.64-3.92-1.72-7.85-3.43-11.77-5.15-1.4-.61-1.93-1.37-1.75-2.48.19-1.15,1.47-2.22,2.75-2.27.42-.02.84.01,1.26.12,1.45.39,2.91.74,4.36,1.12.31.08.7.32.92.1.3-.29-.06-.67-.18-.97-1.5-3.87-3.03-7.72-4.54-11.59-.46-1.18-.16-2.34.74-3.11.83-.7,2.02-.8,3.02-.25.61.33.94.89,1.19,1.5.34.85.67,1.7,1,2.55.16.42.33.52.78.24,1.43-.89,2.34-.79,3.61.35.29.27.45.32.81.09,1.43-.91,2.42-.83,3.62.29.39.37.59.28.98.03,1.61-1.05,3.42-.49,4.06,1.31.94,2.65,1.82,5.32,2.68,7.99.18.55.18,1.16.23,1.52Zm-10.99,7.96c2.35.02,4.12-1,5.94-1.76,2.81-1.17,4.45-4.45,3.6-7.38-.78-2.7-1.77-5.33-2.68-7.99-.24-.69-.75-.95-1.46-.88-.86.08-1.24.67-1.15,1.8.03.38.08.76-.36.9-.49.15-.7-.2-.86-.59-.23-.58-.43-1.17-.69-1.73-.34-.72-1.11-1.04-1.81-.71-.71.33-.99.93-.74,1.7.16.5.37.98.55,1.47.16.45.47,1.01-.16,1.28-.63.27-.82-.33-1.01-.79-.43-1.06-.82-2.14-1.26-3.19-.37-.87-1.02-1.17-1.8-.9-.73.25-1.06,1-.75,1.85.35.98.8,1.93,1.13,2.92.18.53.76,1.27-.11,1.59-.79.29-.86-.6-1.06-1.1-1.1-2.76-2.17-5.54-3.26-8.3-.42-1.07-1.36-1.46-2.16-.9-.76.53-.7,1.24-.39,2.01,1.73,4.37,3.45,8.75,5.16,13.13.15.37.47.78.06,1.18-.36.36-.79.17-1.2.07-1.96-.51-3.92-1.02-5.88-1.54-.51-.14-1.03-.24-1.55-.09-.59.18-1.07.53-1.15,1.2-.09.69.47.85.95,1.06,3.59,1.57,7.18,3.15,10.78,4.72,1.14.5,2.27,1.05,3.29.96Z"/>
  <path class="cls-1" d="m9.61,0c4.92-.02,8.86,4.49,7.97,9.16-.07.36.07.98-.68.72-.5-.17-1.21.07-1.05-1,.49-3.49-1.81-6.54-5.23-7.11-3.23-.54-6.34,1.59-7.13,4.87-.7,2.94.9,6.03,3.76,7.16.75.3,1.28.66,1.51,1.48.15.57.2.75-.52.64-2.91-.43-5.57-2.84-6.36-5.83-.83-3.16.29-6.49,2.81-8.42C6.15.57,7.77,0,9.61,0Z"/>
  <path class="cls-1" d="m13.92,9.26c-1.58-3.23-3.04-4.14-5.15-3.33-1.97.76-2.42,2.41-1.57,5.66-1.55-.48-2.5-2.97-1.88-4.93.75-2.35,3.32-3.7,5.64-2.96,2.38.76,3.72,3.21,2.96,5.56Z"/>
</svg>