<?xml version="1.0" encoding="UTF-8"?>
<svg id="Layer_1" data-name="Layer 1" xmlns="http://www.w3.org/2000/svg" viewBox="0 0 32 32">
  <defs>
    <style>
      .cls-1 {
        fill: #1cbbc4;
      }
    </style>
  </defs>
  <path class="cls-1" d="m4.99,31.26c1.47,0,2.93,0,4.4,0,.43,0,.59-.15.57-.59-.03-.68-.02-1.37-.01-2.05,0-.57-.08-1.1-.3-1.65-.64-1.52-1.52-2.9-2.24-4.37-.35-.72-.85-1.43-.65-2.31.06-.29.18-.53.47-.63.29-.1.46.12.65.29.56.52.82,1.23,1.13,1.9.73,1.55,1.32,3.17,2.29,4.61.14.21.28.46.53.52.87.19,1.75.48,2.63.5,2.47.06,4.95.13,7.41-.26,1.33-.21,1.83-.44,1.7-1.83-.01-.15-.02-.31,0-.47.04-.38-.12-.65-.36-.94-.46-.54-.67-.68-1.72-.76-.86.04-4.5.11-5.03.07-.6-.03-1.04-.73-1.33-1.3-.91-1.75-1.58-3.6-2.28-5.44-.54-1.42-1.36-2.58-2.51-3.52-.42-.34-.81-.54-1.36-.78-.2-.08-.42-.19-.64-.25-.28-.07-.56-.04-.82-.07-.75-.09-1.39.27-2.09.44-2.32.55-3.69,2.8-3.91,4.7-.22,1.85-1.15,12.33-1.42,13.26-.2.72-.01.9.75.9,1.39,0,2.77,0,4.16,0Zm17.34,0c2.97,0,5.94-.01,8.91.01.58,0,.77-.15.77-.76-.02-4.89-.01-9.77-.02-14.66,0-.23,0-.48-.08-.69-.51-1.27-1.1-2.5-1.83-3.66-.17-.28-.4-.46-.76-.47-.8-.03-1.6-.1-2.4-.12-2.76-.08-5.51.16-8.26.12-.58,0-.92.34-1.15.76-.62,1.1-1.21,2.23-1.78,3.36-.42.84-.8,1.69-.66,2.68.05.34.21.56.53.61.34.05.4-.21.46-.48.06-.24.16-.48.28-.7.68-1.3,1.46-2.54,1.96-3.92.23-.65.58-.87,1.24-.86,2.36.03,4.73.01,7.09.01,1.39,0,1.49.11.82,1.34-1.2,2.19-2.44,4.35-3.69,6.52-.45.78-.37,1.66.27,2.28.17.16.34.33.5.5,1.09,1.18,1.11,3.27.03,4.46-1.17,1.29-2.71,1.67-4.37,1.74-.84.03-1.68.01-2.52,0-1.54,0-3.09.09-4.57-.49-.32-.12-.47.05-.53.36-.09.45-.01.89,0,1.34.01.56.24.72.79.72,2.99-.02,5.98-.01,8.97-.01ZM6.6,6.33c-.05,1.9.16,2.23,1.58,3.7,1.04,1.07,2.22,1.55,3.74,1.57,3.36.04,5.48-3.4,5.47-5.67-.02-2.37-2.1-5.48-5.96-5.18-1.92.15-5.16,2.23-4.83,5.58Z"/>
</svg>