<?xml version="1.0" encoding="UTF-8"?>
<svg id="Layer_1" data-name="Layer 1" xmlns="http://www.w3.org/2000/svg" viewBox="0 0 32 32">
  <defs>
    <style>
      .cls-1 {
        fill: #ef5922;
      }
    </style>
  </defs>
  <path class="cls-1" d="m24.33,9.53c0,2.79,0,5.58,0,8.37,0,.48,0,.49.48.48.71-.01,1.41,0,2.09.19,1.41.4,2.59,1.15,3.53,2.28.74.9,1.25,1.92,1.44,3.07.39,2.39-.25,4.46-1.97,6.16-1.07,1.06-2.39,1.68-3.9,1.85-2.31.26-4.27-.49-5.86-2.18-.04-.04-.08-.08-.12-.13-.08-.1-.14-.1-.25-.03-1.02.69-2.05,1.36-3.07,2.05-.67.45-.74.45-1.42,0-.96-.65-1.93-1.29-2.89-1.94-.17-.12-.3-.13-.48,0-.98.66-1.96,1.32-2.95,1.97-.66.43-.66.44-1.35-.01-.97-.64-1.93-1.29-2.89-1.94-.19-.13-.34-.13-.54,0-.95.65-1.91,1.28-2.87,1.92-.12.08-.25.14-.36.23-.45.32-.96-.08-.96-.59.02-1.6,0-3.2,0-4.8,0-7.9,0-15.8,0-23.7,0-.7,0-1.41,0-2.11C.03.32.15.16.47.04.6,0,.72,0,.84.06c.48.23.89.56,1.33.85.71.46,1.41.94,2.11,1.41.14.09.24.1.39,0,1-.67,1.99-1.35,3-2.01.67-.44.66-.42,1.29,0,.98.64,1.96,1.3,2.93,1.96.2.14.34.14.55,0,1-.68,2.01-1.34,3.01-2.03.38-.26.72-.27,1.11,0,1.01.7,2.05,1.37,3.06,2.06.17.11.29.11.46,0,1.01-.68,2.02-1.36,3.03-2.03.11-.07.24-.13.35-.2.31-.19.79.08.83.43.02.16.04.31.04.47,0,2.85,0,5.71,0,8.56h0ZM1.28,30.2c.84-.56,1.67-1.11,2.49-1.66.66-.45.75-.45,1.4-.01.98.66,1.97,1.31,2.94,1.97.16.1.27.1.42,0,1.02-.69,2.05-1.36,3.07-2.05.39-.27.75-.3,1.12,0,.08.06.16.11.25.17.95.63,1.89,1.26,2.84,1.9.14.09.24.1.38,0,.94-.64,1.89-1.27,2.84-1.89.13-.09.16-.16.08-.31-.9-1.8-1.01-3.65-.3-5.54.5-1.33,1.34-2.42,2.54-3.21.46-.31.95-.58,1.48-.76.14-.05.27-.12.24-.3-.05-.36,0-.72,0-1.09,0-4.82,0-9.63,0-14.45,0-.26-.02-.51-.02-.77,0-.1.08-.25,0-.3-.09-.05-.2.07-.3.13-.72.47-1.43.95-2.15,1.43-.74.49-.78.49-1.51,0-.95-.64-1.91-1.27-2.86-1.91-.17-.12-.29-.11-.46,0-.97.66-1.95,1.31-2.93,1.96-.66.44-.72.43-1.38-.01-.98-.65-1.96-1.3-2.93-1.96-.16-.11-.28-.1-.44,0-1.03.69-2.06,1.37-3.08,2.07-.36.25-.69.27-1.05.01-.47-.34-.96-.64-1.44-.96-.36-.24-.71-.47-1.07-.7-.05-.03-.11-.09-.17-.06-.07.04-.03.12-.03.18,0,.16.02.31.02.47,0,8.93,0,17.86,0,26.79,0,.28,0,.56,0,.89Zm18.36-5.02c-.11,2.95,2.53,5.68,5.73,5.57,3-.1,5.45-2.65,5.39-5.71-.06-2.76-2.47-5.68-6.08-5.39-2.79.22-5.11,2.69-5.04,5.54Z"/>
  <path class="cls-1" d="m12.17,11.52c2.46,0,4.92,0,7.38,0,.11,0,.23.01.34.02.36.04.57.26.58.59,0,.37-.19.6-.57.64-.16.02-.33.03-.49.03-4.85,0-9.7,0-14.55,0-.18,0-.36-.01-.53-.03-.3-.04-.48-.28-.47-.63,0-.31.19-.55.48-.58.17-.02.34-.03.51-.03,2.44,0,4.88,0,7.32,0Z"/>
  <path class="cls-1" d="m12.13,15.35c2.43,0,4.85,0,7.28,0,.25,0,.5.02.73.12.25.1.32.3.32.55,0,.24-.09.42-.33.52-.2.07-.4.1-.61.1-4.87,0-9.75,0-14.62,0-.23,0-.46-.02-.67-.1-.25-.1-.36-.26-.36-.55,0-.28.11-.45.36-.55.21-.08.43-.1.65-.1,2.42,0,4.84,0,7.26,0Z"/>
  <path class="cls-1" d="m12.12,7.67c2.43,0,4.85,0,7.28,0,.25,0,.5.02.73.12.25.1.33.29.33.54,0,.25-.09.44-.34.53-.19.07-.39.1-.59.1-4.89,0-9.79,0-14.68,0-.23,0-.45-.02-.67-.12-.23-.1-.31-.28-.31-.51,0-.23.07-.42.29-.53.23-.12.48-.13.73-.13,2.41,0,4.82,0,7.23,0h0Z"/>
  <path class="cls-1" d="m10.58,19.2c1.93,0,3.87,0,5.8,0,.11,0,.23.01.34.03.4.05.59.27.57.65-.01.34-.25.55-.62.57-.83.06-1.66.03-2.5.03-3.07,0-6.15,0-9.22,0-.2,0-.4,0-.6-.03-.34-.04-.52-.27-.51-.64,0-.33.2-.55.54-.57.21-.02.41-.03.62-.03,1.86,0,3.71,0,5.57,0h0Z"/>
  <path class="cls-1" d="m9.9,24.33c-1.66,0-3.33,0-4.99,0-.25,0-.5-.02-.73-.12-.23-.1-.3-.29-.3-.52,0-.23.07-.42.29-.53.19-.09.39-.13.6-.13,3.35,0,6.7,0,10.05,0,.18,0,.37.02.55.04.29.03.51.29.52.59,0,.32-.22.6-.52.63-.19.02-.38.03-.57.03-1.63,0-3.26,0-4.89,0h0Z"/>
  <path class="cls-1" d="m25.66,28.31s-.05-.04-.07-.07c-.13-.15-.26-.31-.39-.46-.32-.38-.64-.75-.96-1.12-.22-.25-.45-.51-.68-.75-.05-.05-.07-.1-.07-.17,0-.15,0-.3,0-.45,0-.09.04-.14.11-.16.01,0,.03,0,.04,0,.09,0,.18,0,.27,0,.15,0,.3,0,.45-.01.23-.02.46-.07.66-.19.17-.11.3-.25.37-.45.02-.05.01-.05-.03-.05-.57,0-1.14,0-1.71,0-.06,0-.11-.02-.14-.07-.02-.03-.02-.06-.02-.09,0-.13,0-.25,0-.38,0-.1.05-.15.15-.16.01,0,.03,0,.04,0,.54,0,1.08,0,1.62,0,.01,0,.03,0,.04,0,0-.01,0-.02-.01-.03-.1-.16-.24-.26-.41-.32-.13-.05-.26-.08-.4-.09-.27-.03-.55,0-.82-.01-.03,0-.05,0-.08,0-.07-.01-.12-.06-.12-.14,0-.18,0-.36,0-.54,0-.09.06-.14.15-.14.01,0,.03,0,.04,0,1.12,0,2.24,0,3.36,0,.15,0,.19.05.2.19,0,.12,0,.23,0,.35,0,.06-.02.11-.08.14-.03.01-.06.02-.09.02-.3,0-.59,0-.89,0,0,0-.01,0-.02,0-.03,0-.03,0-.02.03.03.04.06.08.08.12.07.13.12.26.16.41,0,.03.02.04.05.04.22,0,.43,0,.65,0,.06,0,.11.01.14.06.02.03.02.06.02.09,0,.13,0,.26,0,.39,0,.09-.06.14-.15.14-.22,0-.43,0-.65,0-.03,0-.04,0-.05.04-.03.17-.08.33-.16.48-.13.24-.31.43-.53.58-.23.15-.48.24-.75.3-.07.01-.13.02-.2.04-.03,0-.03.02,0,.03.24.26.47.52.7.79.22.26.44.52.66.78.17.2.33.4.49.6.01.02.02.03.04.05.05.07.03.14-.03.19,0,0-.02,0-.02.02h-.91Z"/>
</svg>