<?xml version="1.0" encoding="UTF-8"?>
<svg id="Layer_1" data-name="Layer 1" xmlns="http://www.w3.org/2000/svg" viewBox="0 0 32 32">
  <defs>
    <style>
      .cls-1 {
        fill: #8c000a;
      }
    </style>
  </defs>
  <path class="cls-1" d="m13.63,4.6c1.26-.02,2.4.15,3.52.44.23.06.34.14.27.39-.14.53-.16,1.08-.13,1.62.02.34-.1.39-.4.29-.59-.2-1.2-.31-1.82-.4-.32-.05-.48.04-.45.4.02.34.01.68,0,1.03-.01.52-.38.9-.88.92-.48.01-.89-.36-.92-.88-.02-.35-.03-.71,0-1.06.02-.35-.12-.44-.45-.4-2.47.34-4.6,1.38-6.34,3.17-1.66,1.7-2.63,3.74-2.97,6.08-.07.47-.02.53.46.53.29,0,.58-.01.88,0,.6.04,1,.43.98.95-.02.51-.42.87-1,.89-.3.01-.61,0-.91,0-.41,0-.46.06-.41.47.2,1.49.67,2.89,1.47,4.17,1.84,2.94,4.49,4.65,7.93,5.12.27.04.38-.03.37-.31-.01-.37-.01-.74,0-1.1.02-.54.4-.92.91-.92.51,0,.87.38.88.94,0,.37.01.74,0,1.1,0,.26.11.33.35.3,1.83-.25,3.51-.87,5.01-1.96,2.31-1.68,3.72-3.94,4.29-6.73.05-.25.07-.5.11-.75.03-.22-.05-.33-.29-.33-.33,0-.66,0-.99,0-.62-.01-1.05-.4-1.04-.93,0-.52.41-.89,1.01-.92.32-.01.64-.02.95,0,.32.02.4-.13.36-.42-.09-.63-.2-1.25-.41-1.85-.1-.29-.06-.42.29-.4.52.02,1.04.03,1.55-.11.28-.08.41,0,.48.3.51,1.92.6,3.85.23,5.8-.58,3.11-2.12,5.67-4.54,7.7-.19.16-.21.28-.09.48.16.26.3.53.44.8.51,1.01.28,2.06-.57,2.64-.88.6-1.93.43-2.7-.43-.3-.34-.6-.69-.89-1.04-.12-.15-.24-.18-.43-.12-2.7.87-5.41.85-8.11,0-.2-.07-.3.02-.42.15-.41.43-.74.93-1.2,1.32-.71.59-1.71.62-2.43.08-.72-.54-.98-1.47-.63-2.31.15-.36.35-.7.55-1.04.14-.23.09-.37-.11-.54-2.51-2.13-4.06-4.8-4.55-8.06-.47-3.16.1-6.14,1.81-8.86,1.94-3.08,4.68-5.04,8.23-5.87.93-.22,1.87-.34,2.73-.3Z"/>
  <path class="cls-1" d="m31.3,6.82c0,3.77-3.02,6.8-6.78,6.8-3.74,0-6.83-3.07-6.8-6.81C17.74,3.08,20.61.01,24.5,0c4.05-.01,6.87,3.31,6.8,6.82Zm-8.98,2.51c1.44,0,2.36-.95,2.38-2.47.02-1.55-.92-2.56-2.37-2.58-1.42-.02-2.36.97-2.37,2.49-.01,1.59.88,2.56,2.36,2.56Zm5.28-2.11h0c0-.58,0-1.17,0-1.75,0-.24.09-.35.34-.34.28,0,.56,0,.84,0,.32,0,.28-.21.29-.42,0-.21-.03-.37-.3-.37-1.09,0-2.18,0-3.27,0-.32,0-.28.22-.28.42,0,.21.02.38.3.37.29-.01.58,0,.87,0,.21,0,.31.06.3.28,0,.19.02.38.02.57,0,.98,0,1.95,0,2.93,0,.37.23.35.48.35.26,0,.44-.03.43-.36-.02-.56,0-1.12,0-1.67Z"/>
  <path class="cls-1" d="m13.22,21.9c0-.91,0-1.83,0-2.74,0-.22-.05-.38-.24-.52-.5-.37-.66-.95-.41-1.52.09-.21.08-.37-.03-.56-.63-1.07-1.24-2.15-1.86-3.23-.08-.13-.17-.26-.16-.42,0-.23.1-.42.33-.5.26-.09.45.02.58.24.36.6.7,1.2,1.05,1.81.3.52.6,1.03.89,1.55.11.21.25.32.49.35.55.07.94.37,1.09.92.15.56-.02,1.03-.49,1.37-.2.14-.22.32-.22.53,0,1.76,0,3.53,0,5.29,0,.08,0,.15,0,.23,0,.47-.18.72-.51.71-.33-.01-.51-.25-.51-.72,0-.93,0-1.85,0-2.78h0Z"/>
  <path class="cls-1" d="m20.9,6.78c0-.31.04-.61.16-.89.22-.53.63-.81,1.21-.83.6-.02,1.05.23,1.28.76.27.62.28,1.26.03,1.89-.23.57-.68.86-1.27.85-.6,0-1.04-.33-1.26-.92-.1-.28-.15-.56-.14-.86Z"/>
</svg>