<?xml version="1.0" encoding="UTF-8"?>
<svg id="Layer_1" data-name="Layer 1" xmlns="http://www.w3.org/2000/svg" viewBox="0 0 32 32">
  <defs>
    <style>
      .cls-1 {
        fill: #fff;
      }
    </style>
  </defs>
  <path class="cls-1" d="m27.61,0c2.26-.04,3.65,1.87,3.63,3.65,0,.6-.19,1.17-.46,1.71-1.05,2.07-2.11,4.13-3.2,6.17-.27.51-.5,1.04-.81,1.53-.09.15-.05.27.03.41.36.64.6,1.33.74,2.06.18.94.07,1.86-.24,2.75-.78,2.28-1.62,4.54-2.6,6.75-.91,2.06-2.02,4.02-3.28,5.88-.62.92-1.73,1.31-2.8.97-1.53-.49-2.99-1.15-4.42-1.87-3.16-1.59-6.02-3.63-8.71-5.91-.7-.6-1.34-1.26-1.97-1.94-.97-1.06-.49-2.87,1.21-3.16,1.95-.33,3.73-1.1,5.4-2.12.69-.42,1.32-.94,1.91-1.5,1.09-1.03,2.12-2.11,3.11-3.25,1.16-1.34,2.65-2.12,4.41-2.35.11-.01.23-.05.33-.04.38.06.56-.13.73-.45.89-1.65,1.67-3.37,2.58-5.01.42-.76.81-1.54,1.21-2.31C25.08.68,26.16.04,27.61,0Zm-10.05,24.57c.54,0,.93.3,1.07.83.1.36-.04.67-.22.95-.48.78-1,1.53-1.62,2.2-.15.17-.13.24.06.33.64.29,1.29.54,1.94.78.64.23.69.21,1.06-.36,1.61-2.52,2.94-5.18,4.01-7.97.09-.25.03-.34-.18-.45-1.18-.6-2.35-1.2-3.51-1.81-1.83-.96-3.65-1.94-5.48-2.91-.15-.08-.26-.08-.39.05-.29.29-.59.58-.9.85-2.19,1.98-4.73,3.27-7.6,3.95-.09.02-.22,0-.25.1-.03.1.09.16.15.22.99.96,2.05,1.85,3.14,2.69.14.11.27.12.42.03.38-.21.72-.46,1.06-.74.49-.41,1.15-.36,1.56.1.42.47.37,1.08-.13,1.54-.18.16-.37.31-.56.46-.14.11-.15.19,0,.29,1.04.69,2.09,1.37,3.18,1.98.13.07.22.05.32-.05.18-.19.37-.36.54-.56.51-.57.95-1.2,1.33-1.87.22-.38.52-.62.98-.61Zm2.67-12.6c-1.08.01-1.68.18-2.44.69-.65.43-1.12,1.04-1.61,1.63-.11.13-.02.17.08.22.44.23.88.47,1.33.7,2.32,1.22,4.64,2.44,6.95,3.66.15.08.22.05.27-.1.13-.37.28-.74.4-1.12.51-1.56.03-3.15-1.25-4.18-.6-.48-1.31-.76-1.98-1.1-.57-.29-1.17-.45-1.75-.4ZM29.06,3.63c0-.62-.45-1.24-1.03-1.4-.65-.18-1.29.06-1.64.66-.23.39-.42.79-.62,1.19-.98,1.98-2.01,3.95-3.05,5.9-.11.2-.09.29.12.4.67.33,1.35.64,1.99,1.05.21.14.32.12.43-.11.3-.62.62-1.23.94-1.84.89-1.7,1.78-3.4,2.67-5.11.12-.23.22-.47.21-.74Z"/>
  <path class="cls-1" d="m8.14,10.65c0,.88-.7,1.57-1.59,1.56-.85-.01-1.56-.73-1.55-1.58,0-.89.7-1.57,1.61-1.56.86,0,1.53.71,1.53,1.59Z"/>
  <path class="cls-1" d="m3.89,15.42c0,.83-.72,1.59-1.52,1.59-.86,0-1.61-.74-1.61-1.59,0-.86.72-1.57,1.58-1.58.83,0,1.55.73,1.55,1.58Z"/>
</svg>