<?xml version="1.0" encoding="UTF-8"?>
<svg id="Layer_1" data-name="Layer 1" xmlns="http://www.w3.org/2000/svg" viewBox="0 0 32 32">
  <defs>
    <style>
      .cls-1 {
        fill: #333;
      }
    </style>
  </defs>
  <path class="cls-1" d="m7.93,13.08c0-1.84,0-3.67,0-5.51,0-.25,0-.51.05-.76.07-.48.4-.77.89-.79.32-.01.65,0,.97,0,3.35,0,6.69,0,10.04.01.17,0,.21-.05.21-.21-.04-1.33.29-2.55,1.08-3.63.9-1.24,2.14-1.91,3.64-2.13,2.49-.36,5.32,1.1,6,4.22.69,3.18-1.49,6.16-4.7,6.53-.4.05-.81.06-1.21-.02-.2-.04-.25.04-.25.22,0,.32,0,.65,0,.97,0,2.62,0,5.24,0,7.86,0,.07-.04.16.04.2.08.05.15-.03.21-.08.75-.49,1.57-.74,2.47-.71,1.05.04,1.66.88,1.38,1.9-.14.52-.44.94-.82,1.31-.94.92-2.03,1.67-3.15,2.35-1.46.89-2.96,1.7-4.55,2.33-1.16.45-2.37.64-3.59.82-1.36.2-2.7.01-4.02-.26-.89-.19-1.71,0-2.48.45-.14.08-.1.15-.03.24.21.31.43.63.63.95.26.42.2.63-.21.89-.79.51-1.58,1.03-2.36,1.54-.04.03-.08.05-.12.08-.37.22-.55.19-.8-.17-.32-.48-.63-.96-.95-1.45-1.5-2.3-2.99-4.6-4.49-6.9-.2-.3-.4-.61-.59-.92-.22-.35-.17-.6.18-.82.8-.52,1.6-1.05,2.4-1.57.07-.05.15-.09.22-.13.29-.15.51-.09.69.18.23.34.45.69.67,1.04.09.14.17.16.3.07.78-.55,1.51-1.17,2.19-1.85.12-.12.1-.26.1-.4,0-1.95,0-3.91,0-5.86h-.02Zm11.28,9.41c.12-.02.17-.02.22-.04,1.4-.46,2.75-1.04,4.05-1.71.16-.08.2-.18.2-.35,0-2.63,0-5.27,0-7.9,0-.59,0-1.19,0-1.78,0-.12-.01-.2-.15-.26-1.4-.54-2.42-1.5-2.97-2.89-.2-.51-.45-.65-.93-.59-.31.04-.32,0-.32.33,0,1.39,0,2.79,0,4.18,0,.21-.03.39-.23.51-.21.12-.39.06-.57-.07-.67-.5-1.35-.99-2.02-1.5-.13-.1-.21-.1-.35,0-.65.49-1.31.97-1.97,1.45-.19.14-.38.28-.63.15-.23-.13-.28-.34-.28-.59,0-1.4,0-2.8,0-4.2,0-.19-.04-.24-.24-.24-1.27,0-2.55,0-3.82,0-.31,0-.31,0-.3.31.02,3.65.02,7.31-.01,10.96,0,.16.05.15.16.09.14-.08.28-.17.43-.25.77-.4,1.57-.62,2.44-.42.65.15,1.26.41,1.87.67,1.04.44,2.1.77,3.24.63.48-.06.95,0,1.41.11,1.48.38,1.97,1.7,1.09,2.95-.1.14-.21.27-.35.46Zm-3.75,4.59c1.58-.03,3.12-.27,4.58-.87,2.15-.89,4.17-2.03,6.04-3.43.55-.41,1.07-.84,1.48-1.39.18-.24.3-.5.28-.81-.02-.17-.09-.27-.27-.31-.61-.12-1.21-.04-1.75.26-1.16.63-2.31,1.28-3.51,1.82-1.76.79-3.58,1.39-5.51,1.56-.73.06-1.45.02-2.17-.13-.31-.07-.48-.27-.46-.54.03-.25.22-.39.55-.41.28-.01.55-.02.83-.04.71-.05,1.41-.17,2.07-.47.52-.24.99-.53,1.28-1.05.28-.51.12-.94-.4-1.19-.35-.16-.73-.19-1.11-.17-.62.04-1.25.06-1.87-.05-1.01-.18-1.94-.6-2.88-.99-.85-.36-1.7-.46-2.56-.01-.43.22-.81.52-1.17.84-.9.81-1.75,1.67-2.79,2.31-.1.06-.11.13-.04.23,1.09,1.66,2.17,3.32,3.25,4.99.12.18.2.2.38.1.95-.55,1.96-.8,3.05-.54.89.21,1.79.32,2.7.3ZM29.98,5.41c.09-2.34-1.97-4.48-4.45-4.48-2.45,0-4.55,2.11-4.49,4.64.05,2.29,2.14,4.29,4.45,4.32,2.43.03,4.58-2.09,4.49-4.48ZM4.08,20.98s-.1.05-.15.09c-.53.34-1.06.69-1.59,1.03-.16.1-.12.19-.04.31,1.18,1.81,2.36,3.61,3.54,5.42.62.95,1.24,1.91,1.86,2.87.06.09.1.17.22.09.56-.4,1.15-.75,1.74-1.11.09-.05.1-.11.03-.19-.04-.06-.08-.12-.12-.18-.87-1.33-1.74-2.66-2.6-3.99-.91-1.4-1.81-2.8-2.72-4.2-.04-.06-.06-.13-.17-.13Zm14.29-10.38c0-1.16,0-2.28,0-3.39,0-.19-.06-.24-.24-.24-1.2,0-2.4,0-3.6,0-.23,0-.3.06-.29.29.04,1.04.03,2.09,0,3.13,0,.06-.03.14.04.17.07.03.11-.03.16-.07.43-.32.86-.65,1.3-.96.58-.41.58-.41,1.17.01.47.34.94.68,1.45,1.05Z"/>
  <path class="cls-1" d="m16.32,15.38c-.85,0-1.69,0-2.54,0-.29,0-.45-.17-.47-.46-.02-.22.15-.44.39-.5.08-.02.16-.03.23-.03,1.59,0,3.18,0,4.77,0,.18,0,.34.04.48.18.15.16.2.33.11.54-.08.2-.23.27-.43.27-.85,0-1.69,0-2.54,0,0,0,0,0,0,0Z"/>
  <path class="cls-1" d="m16.29,17.47c-.47,0-.93,0-1.4,0-.25,0-.41-.19-.43-.44-.01-.22.13-.41.36-.47.13-.03.27-.04.4-.04.77,0,1.53,0,2.3,0,.13,0,.25,0,.37.06.2.09.33.23.31.48-.03.24-.16.37-.39.41-.26.05-.52.02-.78.02-.24,0-.49,0-.73,0,0,0,0-.01,0-.02Z"/>
  <path class="cls-1" d="m24.88,6.88c-.16-.01-.28-.07-.37-.18-.35-.41-.71-.81-1.05-1.22-.22-.27-.19-.45.05-.66.2-.18.42-.18.65.05.21.21.42.43.59.68.12.18.21.16.35.04.46-.39.93-.79,1.39-1.18.16-.13.32-.26.49-.37.24-.15.44-.1.62.12.15.2.15.43-.06.61-.68.59-1.37,1.16-2.06,1.74-.14.12-.27.27-.45.34-.05.02-.11.03-.14.04Z"/>
</svg>