<?xml version="1.0" encoding="UTF-8"?>
<svg id="Layer_1" data-name="Layer 1" xmlns="http://www.w3.org/2000/svg" viewBox="0 0 32 32">
  <defs>
    <style>
      .cls-1 {
        fill: #5ea6a5;
      }
    </style>
  </defs>
  <rect class="cls-1" x="12.35" y="27.81" width="4.19" height="1.42" rx=".21" ry=".21"/>
  <path class="cls-1" d="m30.28,17.92c0-.31-.09-.61-.28-.88-.46-.65-1.19-.9-2.17-.72-.2.04-.26,0-.31-.17-.12-.45-.45-.83-.89-1.06V3.49C26.63,1.57,25.07,0,23.14,0H5.2C3.28,0,1.71,1.57,1.71,3.49v25.02c0,1.92,1.57,3.49,3.49,3.49h17.94c1.8,0,3.26-1.37,3.45-3.12.43-.03.86-.06,1.29-.1.56-.06.79-.19.79-.69,0-.66,0-1.32-.01-1.98,0-.15.04-.27.14-.4.43-.51.85-1.03,1.28-1.55.14-.17.2-.35.2-.56,0-1.89,0-3.78,0-5.67Zm-7.14,12.69H5.2c-1.15,0-2.09-.94-2.09-2.09V3.49c0-1.15.94-2.09,2.09-2.09h17.94c1.15,0,2.09.94,2.09,2.09v11.45c-.12.03-.25.07-.37.13-.11.05-.17.04-.24-.05-.1-.12-.22-.21-.33-.3V4.23c0-.77-.63-1.4-1.4-1.4H6.13c-.77,0-1.4.63-1.4,1.4v21.02c0,.77.63,1.4,1.4,1.4h13.62c0,.49-.01.98,0,1.47,0,.49.23.67.79.67,1.56.16,3.11.21,4.66.17-.2.95-1.04,1.66-2.05,1.66Zm-.8-18.11c-.09-1.35-1.5-1.9-2.63-1.48-.8.3-1.12.89-1.13,1.62,0,1.79,0,3.19,0,4.98v.6c-.18-.12-.33-.25-.5-.36-.6-.39-1.39-.42-2.05-.08-.61.32-.94.95-.84,1.58.06.37.28.67.5.97,1.2,1.64,2.39,3.27,3.59,4.91H6.13V4.23h16.77v10.09c-.12.01-.24.01-.36.05-.14.04-.17,0-.17-.13,0-.71.02-1.03-.02-1.74Zm6.73,11.44c-.19.23-.38.46-.57.7-.21.26-.42.52-.63.77-.15.18-.22.37-.21.6,0,.26,0,.52,0,.78,0,.27,0,.54,0,.82,0,.08,0,.16-.07.23-.06.07-.16.07-.24.07h0c-1.19.2-2.3.29-3.34.29s-2-.1-2.91-.3c-.05,0-.14,0-.21-.07-.06-.06-.07-.15-.07-.23,0-.19,0-.39,0-.58,0-.3,0-.59,0-.89,0-.27-.07-.5-.25-.75-1.11-1.5-2.22-3-3.32-4.51l-.75-1.03c-.07-.09-.14-.19-.19-.29-.1-.18-.13-.36-.08-.54.05-.18.17-.33.35-.43.38-.22.85-.14,1.11.18.2.25.39.5.58.76.1.13.2.26.29.39l.03.04c.07.1.15.19.23.29.14.17.3.23.49.18.2-.05.34-.22.34-.4,0-.29,0-.57,0-.86v-4.03c0-.85,0-1.6,0-2.56,0-.34.21-.62.54-.73.34-.11.73-.02.95.22.18.18.2.4.2.57,0,1.96,0,4.7,0,6.66,0,.12,0,.22,0,.31.02.25.19.4.45.4h0c.25,0,.45-.16.46-.38.02-.44.01-1.73.01-2.43v-.31c0-.14,0-.28,0-.41,0-.15,0-.3,0-.45,0-.49.32-.8.84-.82.28,0,.49.07.65.22.15.14.23.33.23.56.01.55,0,1.77,0,2.66v.69c0,.14,0,.25.03.35.05.18.23.31.42.31h0c.21,0,.4-.14.45-.31.02-.07.02-.15.02-.25v-.75c0-.74,0-1.72,0-2.12,0-.46.34-.79.82-.79h0c.24,0,.46.09.62.25.15.15.24.35.24.56,0,.56,0,1.62,0,2.52v1.19c0,.3.16.47.44.48h0c.14,0,.25-.04.34-.13.09-.08.13-.2.13-.35,0-.2,0-.69,0-1.18,0-.49,0-.98,0-1.19,0-.45.33-.76.83-.78.54-.03.89.25.94.72.03.22.02.44.01.65,0,.08,0,.17,0,.25-.02,1.83-.01,3.23.02,4.55,0,.22-.07.42-.22.6Z"/>
</svg>