<?xml version="1.0" encoding="UTF-8"?>
<svg id="Layer_1" data-name="Layer 1" xmlns="http://www.w3.org/2000/svg" viewBox="0 0 32 32">
  <defs>
    <style>
      .cls-1 {
        fill: #fff;
      }
    </style>
  </defs>
  <path class="cls-1" d="m16.21,0c4.04.18,7.29,2.03,9.43,5.73,1,1.73,1.48,3.62,1.43,5.61-.05,1.92-.56,3.72-1.54,5.39-1.76,2.99-3.57,5.94-5.42,8.87-1.32,2.09-2.65,4.18-3.96,6.27-.1.17-.15.16-.25,0-3.04-4.81-6.08-9.61-9.02-14.49-1.03-1.71-1.69-3.51-1.9-5.48-.13-1.18.04-2.34.35-3.47C6.58,3.92,9.55,1.2,14.1.17c.15-.03.31-.06.46-.07C15.04.07,15.52.04,16.21,0Zm4.72,11.2c.01-3.05-2.52-5.11-5.05-5.02-2.3.08-4.78,1.89-4.75,5.05.02,2.72,2.22,4.89,4.92,4.88,2.66-.01,4.9-2.26,4.88-4.91Z"/>
</svg>