<?xml version="1.0" encoding="UTF-8"?>
<svg id="Layer_1" data-name="Layer 1" xmlns="http://www.w3.org/2000/svg" viewBox="0 0 32 32">
  <defs>
    <style>
      .cls-1 {
        fill: #97118c;
      }
    </style>
  </defs>
  <path class="cls-1" d="m28.54,17.16c0,2.04-.01,4.08,0,6.12,0,.4-.13.64-.45.85-.86.56-1.7,1.14-2.55,1.71-1.31.89-2.61,1.79-3.92,2.68-1.37.94-2.75,1.86-4.12,2.8-.28.19-.57.38-.84.58-.18.13-.36.12-.55.03-.23-.1-.44-.25-.65-.39-1.13-.73-2.26-1.46-3.38-2.2-2.19-1.44-4.38-2.87-6.59-4.29-.52-.33-1.04-.67-1.55-1.02-.04-.02-.08-.07-.11-.07-.47.05-.3-.34-.33-.53-.05-.32-.02-.65-.02-.98,0-3.77,0-7.54,0-11.31,0-.44.15-.73.51-.95.63-.39,1.25-.79,1.87-1.2,1.64-1.06,3.28-2.12,4.92-3.18,1.08-.7,2.16-1.4,3.24-2.1.69-.45,1.39-.9,2.08-1.35.24-.15.43-.15.66.02.32.22.65.43.97.66.12.08.21.07.28-.06.35-.66.83-1.25,1.15-1.94.28-.61.81-.93,1.47-1.04.22-.04.41.07.6.15.71.29,1.42.57,2.13.83.21.08.43.16.64.24.72.29,1.11.83,1.18,1.59.05.52.02,1.02-.33,1.46-.31.39-.69.64-1.18.73-.22.04-.44,0-.65-.09-.28-.12-.56-.24-.83-.38-.15-.08-.23-.04-.31.08-.15.23-.3.47-.47.69-.1.13-.08.22.05.31.37.25.73.5,1.09.75.91.62,1.83,1.24,2.74,1.87.96.66,1.92,1.33,2.89,1.98.26.17.36.37.36.69-.01,2.08,0,4.16,0,6.23h0Zm-24,.37s0,0,0,0c0,1.81,0,3.63,0,5.44,0,.15.04.24.17.32,1.58,1.02,3.16,2.07,4.74,3.09,1.99,1.29,3.97,2.6,5.96,3.9.09.06.18.19.29.13.09-.06.04-.2.04-.3,0-1.87,0-3.74,0-5.61,0-1.62,0-3.25,0-4.87,0-.12-.03-.2-.13-.27-1.31-.89-2.62-1.79-3.92-2.69-.05-.03-.1-.09-.17-.06-.07.04-.04.11-.04.17,0,.02,0,.05,0,.08,0,1.38,0,2.77,0,4.15,0,.12,0,.24,0,.36-.02.36-.42.6-.74.45-.12-.06-.23-.13-.35-.2-.76-.45-1.52-.9-2.28-1.35-.25-.15-.38-.34-.37-.65.02-.38,0-.77,0-1.16.01-1.38.02-2.77.04-4.15,0-.2-.05-.34-.22-.45-.95-.64-1.9-1.29-2.85-1.94-.13-.09-.18-.07-.17.09,0,.03,0,.06,0,.09,0,1.81,0,3.61,0,5.42Zm22.93,0s0,0-.01,0c0-1.81,0-3.61,0-5.42,0-.07.04-.15-.04-.19-.07-.03-.13.04-.18.08-.74.53-1.48,1.06-2.22,1.59-1.76,1.26-3.52,2.53-5.28,3.79-.92.66-1.84,1.32-2.76,1.97-.13.09-.17.19-.17.35,0,3.19,0,6.38.01,9.57,0,.34,0,.68,0,1.02,0,.04,0,.09.03.12.05.03.08,0,.12-.03.43-.33.9-.61,1.35-.92,2.43-1.67,4.87-3.33,7.3-5,.56-.38,1.14-.73,1.68-1.14.12-.09.19-.18.19-.34,0-1.81,0-3.62,0-5.44Zm-.45-6.72c-.03-.08-.1-.12-.17-.17-1.95-1.34-3.9-2.69-5.85-4.03-.29-.2-.29-.19-.48.09-.76,1.18-1.52,2.36-2.28,3.53-.25.38-.46.78-.84,1.06-1.35,1-2.69,2.01-4.04,3.01-.45.34-.91.68-1.36,1.03-.16.13-.16.18.01.3.08.06.16.11.23.16,1.32.89,2.63,1.79,3.93,2.71.07.05.11.06.18,0,.31-.23.62-.46.93-.68,1.32-.95,2.65-1.89,3.97-2.84,1.2-.87,2.4-1.75,3.6-2.61.64-.46,1.29-.91,1.93-1.37.08-.05.16-.1.21-.19Zm-18.72,2.26s.08-.04.13-.08c.18-.13.37-.27.55-.4,1.6-1.17,3.19-2.35,4.8-3.51.35-.25.63-.55.86-.91.84-1.33,1.69-2.65,2.55-3.97.08-.12.05-.18-.05-.24-.19-.13-.39-.26-.57-.4-.11-.08-.21-.08-.33,0-1.03.62-2.01,1.3-3.03,1.95-1.2.77-2.39,1.57-3.59,2.33-1.49.93-2.95,1.91-4.42,2.86-.2.13-.2.15,0,.28.97.7,1.98,1.33,2.94,2.05.04.03.09.07.17.07ZM22.29,1.77c-.01-.09-.08-.1-.14-.12-.41-.16-.82-.31-1.22-.46-.36-.14-.64-.05-.83.3-.09.17-.16.36-.26.52-.88,1.38-1.76,2.76-2.64,4.14-.62.96-1.24,1.92-1.86,2.88-.17.26-.36.49-.61.67-.79.57-1.58,1.15-2.37,1.73-.98.72-1.95,1.44-2.93,2.15-.18.13-.18.15,0,.28.43.31.87.6,1.31.91.11.08.21.06.31-.02.42-.35.88-.66,1.32-.99,1.38-1.04,2.77-2.08,4.16-3.11.28-.21.52-.44.7-.74.23-.38.47-.75.71-1.12.96-1.5,1.92-3,2.88-4.5.5-.79,1.05-1.55,1.43-2.41.02-.04.04-.08.05-.11Zm-11.88,16.34s0,0-.01,0c0-.69,0-1.39,0-2.08,0-.15-.05-.25-.18-.33-.29-.2-.58-.41-.87-.61-.12-.08-.25-.15-.37-.23-.09-.05-.13-.02-.13.08.04.55-.02,1.1-.03,1.65,0,.87.03,1.74-.04,2.61-.01.17.04.27.19.35.41.23.82.45,1.21.71.05.04.11.12.18.08.07-.04.04-.13.04-.19,0-.68,0-1.36,0-2.05ZM24.08,3.07c0-.19-.05-.41-.18-.59-.2-.3-.59-.29-.78.01-.22.34-.2.97.05,1.3.19.25.44.27.66.03.18-.2.26-.44.25-.75Z"/>
  <path class="cls-1" d="m11.76,23.61s.04.03.07.04c.95.63,1.9,1.26,2.85,1.9.23.16.23.16.07.39-.12.17-.23.35-.34.52-.06.1-.13.12-.23.05-.94-.67-1.94-1.26-2.88-1.93-.14-.1-.18-.16-.06-.3.14-.17.24-.37.37-.55.03-.05.06-.12.15-.11Z"/>
  <path class="cls-1" d="m14.84,27.73s-.03.05-.04.07c-.18.2-.31.43-.45.65-.08.13-.16.1-.27.03-.89-.6-1.79-1.19-2.68-1.78-.04-.03-.08-.06-.13-.08-.21-.11-.21-.12-.08-.31.12-.17.24-.34.34-.53.09-.17.18-.14.32-.06.86.57,1.73,1.14,2.59,1.7.11.07.22.14.33.22.03.02.05.06.07.09Z"/>
  <path class="cls-1" d="m17.86,22.64c0-.59,0-1.17,0-1.76,0-.19.06-.34.21-.46.51-.42,1.07-.76,1.6-1.15.71-.52,1.43-1.03,2.15-1.55.27-.19.49-.17.72.07.08.09.11.19.12.31.04.49,0,.98,0,1.47.02.68,0,1.36.02,2.04.02.36-.11.6-.41.8-1.02.7-2.01,1.43-3.02,2.15-.18.13-.37.26-.57.38-.41.23-.8.01-.82-.46-.01-.47,0-.93-.01-1.4,0-.15,0-.3,0-.45h0Zm3.71-3.46c-.88.63-1.71,1.23-2.55,1.83-.07.05-.09.12-.09.2,0,.7,0,1.4,0,2.1,0,.04-.01.09.04.12.05.03.08-.02.12-.04.78-.55,1.55-1.11,2.33-1.66.11-.08.15-.17.15-.3,0-.4,0-.81,0-1.21,0-.33,0-.65,0-1.03Z"/>
</svg>