<?xml version="1.0" encoding="UTF-8"?>
<svg id="Layer_1" data-name="Layer 1" xmlns="http://www.w3.org/2000/svg" viewBox="0 0 32 32">
  <defs>
    <style>
      .cls-1 {
        fill: #0f6176;
      }
    </style>
  </defs>
  <path class="cls-1" d="m31.22.89c0-.15,0-.3-.04-.44-.08-.25-.22-.41-.5-.45-.27-.03-.53.01-.8.01-2.96,0-5.92,0-8.88,0-.02,0-.05,0-.07,0,0,0-.01,0-.02,0-.27-.03-.55,0-.82,0-4.16,0-12.1.01-16.26,0C2.49,0,1,1.11.96,2.8c-.04,1.64,1.25,2.97,2.9,2.98.51,0,1.01,0,1.52,0,.05,0,.13-.02.15.04.02.06-.04.1-.08.13-.19.19-.38.37-.57.56-.03.03-.06.07-.09.11-.72.7-2.82,2.79-3.14,3.11-.97.98-1.14,2.36-.42,3.54.57.92,1.44,1.38,2.51,1.37.81,0,1.51-.35,2.08-.94.94-.95,1.89-1.89,2.84-2.83.05-.05.09-.13.18-.13.05.07.03.15.03.22,0,1.63,0,3.27,0,4.9,0,.4.08.78.22,1.15.45,1.17,1.73,1.93,2.96,1.78.44-.05.85-.19,1.23-.42.14-.09.18-.05.19.1,0,.23,0,.46.01.69,0,.15-.05.26-.17.36-1.12.91-2.23,1.82-3.35,2.74-.11.09-.21.12-.35.12-.43,0-.86,0-1.29,0-.63,0-.85.22-.85.83,0,2.66,0,5.32,0,7.98,0,.1,0,.2.03.29.05.31.22.47.53.51.11.01.23.01.34.01,2.49,0,4.98,0,7.46,0,1.38,0,2.76,0,4.14,0,.44,0,.67-.23.67-.66,0-.34,0-.67,0-1.01,0-.11,0-.23,0-.34,0-.01,0-.02,0-.04,0-1.06,0-5.77,0-6.83,0-.5-.23-.73-.74-.74-.37,0-.75-.01-1.12,0-.33.02-.61-.05-.84-.3-.12-.13-.28-.24-.42-.35-.89-.73-1.78-1.47-2.67-2.2-.12-.1-.22-.2-.21-.37,0-.25,0-.5,0-.76,0-.1.03-.13.12-.08.15.08.3.16.45.23,1.09.46,2.11.32,3.01-.42.71-.58,1.33-1.27,1.98-1.93.81-.83,1.64-1.65,2.45-2.47.11-.11.24-.15.4-.15.6,0,1.2,0,1.8,0,1.25.03,2.3-.43,3.17-1.29.95-.93,1.89-1.89,2.84-2.82.24-.23.35-.5.35-.83,0-2.59,0-5.18,0-7.77ZM8.72,9.17c-.23.22-.47.44-.7.67-.95.96-1.91,1.91-2.85,2.87-.4.41-.87.61-1.44.57-.68-.04-1.18-.38-1.45-1-.26-.6-.19-1.18.22-1.7.23-.29.51-.54.78-.8.13-.13,1.59-1.57,2.31-2.33.04-.02.08-.05.11-.08.84-.83,1.68-1.66,2.52-2.49.2-.2.41-.39.63-.6.01.07.02.09.02.11,0,1.49,0,2.99,0,4.48,0,.13-.06.23-.15.31Zm-1.63-4.84c-.17.17-.34.3-.53.24-.89-.06-1.72-.04-2.55,0-.52.02-.98-.13-1.35-.52-.92-.94-.5-2.49.78-2.83.21-.06.42-.06.63-.06,1.92.05,3.84.01,5.77.02.12,0,.3-.07.35.05.04.1-.13.18-.21.26-.96.95-1.92,1.9-2.87,2.85Zm12.12,19.25c.19,0,.24.06.24.24,0,.76,0,5.18,0,5.95,0,.02,0,.04,0,.06,0,.24,0,.47,0,.71,0,.27,0,.27-.27.27-3.38,0-6.77,0-10.15,0-.31,0-.31,0-.31-.32,0-2.22,0-4.45,0-6.67,0-.19.07-.24.25-.23.97,0,1.95,0,2.92,0,.2,0,.26.06.25.25,0,.81,0,1.63,0,2.44,0,.53.24.77.78.77.78,0,1.55,0,2.33,0,.54,0,.8-.27.8-.81,0-.79,0-1.59,0-2.38,0-.19.05-.27.26-.27.97,0,1.94,0,2.92,0Zm-4.41,1.12c0,.31,0,.62,0,.92,0,.16-.05.21-.21.21-.35,0-.7-.01-1.05,0-.2,0-.24-.1-.24-.26,0-.47.02-.94.03-1.41,0-.13,0-.27,0-.4,0-.12.05-.18.18-.18.38,0,.76,0,1.14,0,.12,0,.16.06.16.17,0,.32,0,.63,0,.95h0Zm1.43-2.52c.06.05.16.08.13.17-.03.07-.13.04-.19.04-.7,0-1.41,0-2.11,0h0c-.71,0-1.42,0-2.13,0-.05,0-.13.02-.15-.04-.02-.05.04-.08.08-.11.64-.53,1.28-1.05,1.92-1.58.29-.24.29-.23.57,0,.62.51,1.26,1.02,1.88,1.52Zm-1.54-8.66c0-.27,0-.51,0-.75,0-1.14-.01-2.27,0-3.41,0-.65.32-1.14.89-1.45.94-.51,2.07-.03,2.42,1.03.2.58.12,1.15-.31,1.59-.96,1-1.95,1.96-2.93,2.94-.02.02-.05.03-.08.05Zm15.12-4.61c-.82.8-1.65,1.59-2.44,2.43-.75.79-1.64,1.15-2.72,1.12-.66-.02-1.32,0-1.99,0-.25,0-.44.08-.62.25-1.49,1.49-2.98,2.99-4.48,4.47-.5.5-1.12.58-1.76.34-.66-.25-1.03-.76-1.08-1.47-.05-.6.23-1.06.64-1.47,1.01-.98,2-1.98,2.99-2.97,1.05-1.06,1.23-2.32.53-3.55-.61-1.08-1.8-1.67-2.97-1.47-1.24.21-2.17,1.14-2.37,2.39-.07.41-.07.82-.07,1.24,0,1.89-.02,3.79.01,5.68.02,1.03-.81,1.83-1.82,1.75-.85-.06-1.56-.76-1.56-1.6,0-.3,0-.6,0-.91,0-3.64,0-7.28,0-10.92,0-.73.29-1.35.75-1.9.69-.81,1.6-1.13,2.65-1.13.99,0,5.02,0,6.62,0,.07,0,.14,0,.21,0,.12,0,.24,0,.36,0,.01,0,.03,0,.04,0,2.99,0,5.98,0,8.97,0,.17,0,.27.02.27.24,0,2.14,0,4.28,0,6.42,0,.19-.02.38.02.57.04.22-.04.36-.19.5Z"/>
</svg>