<?xml version="1.0" encoding="UTF-8"?>
<svg id="Layer_1" data-name="Layer 1" xmlns="http://www.w3.org/2000/svg" viewBox="0 0 32 32">
  <defs>
    <style>
      .cls-1 {
        fill: #3d7a20;
      }
    </style>
  </defs>
  <path class="cls-1" d="m13.82.01c2.82,0,5.63,0,8.45,0,.47,0,.94.04,1.41.05.31,0,.47.15.53.45.1.5.07,1,.07,1.5,0,.92.01,1.85-.02,2.77-.02.75-.19.92-.94.88-.49-.02-.6.19-.6.63.01,3.3,0,6.6,0,9.9,0,.44,0,.87-.06,1.31-.05.44-.26.61-.7.6-1.57-.02-3.14-.01-4.71-.01-.61,0-.63.02-.64.63,0,.42.02.84,0,1.26-.02.44.16.62.6.59,1.08-.07,2.12.07,3.16.38,1.21.36,2.23,1.02,3.17,1.83.45.39.91.58,1.5.52.19-.02.39-.03.58,0,.49.05.78-.1.86-.65.08-.53.52-.87,1.13-.89,1.03-.03,2.07-.04,3.11,0,.76.03,1.23.53,1.24,1.29.02,2.56.02,5.11,0,7.67,0,.8-.38,1.21-1.18,1.25-1.05.05-2.1.05-3.15,0-.75-.03-1.06-.38-1.17-1.14-.03-.25-.15-.39-.4-.39-.19,0-.39,0-.58,0-4.95,0-9.9-.02-14.86.01-1.39,0-2.52-.47-3.48-1.43-2.11-2.1-4.23-4.19-6.34-6.29-.78-.78-.98-2.02-.48-2.86.57-.96,1.65-1.42,2.7-1.15.51.13.88.48,1.24.83.92.91,1.83,1.83,2.74,2.76.22.22.34.24.51-.04.45-.77,1.18-1.01,2.02-1.02,1.35-.02,1.2.14,1.2-1.24,0-.45-.02-.91,0-1.36.02-.4-.15-.55-.54-.54-1.49.01-2.98.01-4.47,0-.95,0-1.02-.05-1.02-.97,0-3.56,0-7.12,0-10.68q0-.77-.79-.78c-.65,0-.76-.1-.76-.76,0-1.36,0-2.72,0-4.08,0-.62.13-.77.77-.79C5.05.01,6.18,0,7.31,0c2.17,0,4.34,0,6.51,0,0,0,0,0,0,.01Zm4.15,29.48h0c2.6,0,5.21,0,7.81,0,.35,0,.61-.05.6-.49-.01-1.41-.01-2.81,0-4.22,0-.36-.16-.48-.51-.48-.47.01-.94,0-1.41,0-.45-.01-.83-.17-1.16-.51-2.38-2.35-5.21-2.72-8.31-1.84-.44.12-.87.23-1.33.23-1.41,0-2.82-.01-4.22,0-.82,0-1.36.55-1.37,1.33-.01.64.57,1.2,1.32,1.21,1.16.01,2.33,0,3.49-.03,1.04-.03,2.07.02,3.1.05.26,0,.42.14.45.41.03.28-.13.42-.38.48-.11.03-.22.04-.34.04-2.15,0-4.3.02-6.46,0-.94-.01-1.62-.48-1.96-1.39-.14-.36-.3-.71-.6-.98-.37-.34-.71-.7-1.07-1.06-.77-.76-1.49-1.58-2.33-2.27-.7-.58-1.67-.4-2.14.36-.37.6-.24,1.2.42,1.86,2.06,2.06,4.13,4.1,6.18,6.18.78.79,1.67,1.16,2.78,1.15,2.48-.02,4.95,0,7.43,0ZM5.63,11.37c0,1.7,0,3.4,0,5.1,0,.43.13.61.59.61,1.33-.02,2.65-.01,3.98,0,.41,0,.54-.15.53-.55-.02-.78,0-1.55,0-2.33,0-.76,0-.75-.75-.76-.55,0-1.1.06-1.65-.05-.55-.11-.65-.42-.33-.87.06-.08.12-.15.19-.22.71-.8,1.41-1.6,2.12-2.4.96-1.09,1.91-2.2,2.89-3.28.4-.44.57-.44.95-.01,1.76,1.94,3.5,3.91,5.19,5.91.14.17.32.34.17.6-.14.23-.33.33-.6.33-.57-.01-1.13,0-1.7-.02-.41-.02-.59.11-.58.55.02.86.02,1.72,0,2.57,0,.41.16.54.55.53,1.29-.02,2.59,0,3.88-.01.61,0,.66-.04.66-.67,0-3.35,0-6.7,0-10.05,0-.63-.04-.67-.65-.67-4.94,0-9.87,0-14.81-.01-.51,0-.64.18-.63.65.02,1.68,0,3.37,0,5.05Zm8.02-6.71s0,.02,0,.02c3.06,0,6.12,0,9.18,0,.29,0,.43-.09.43-.38,0-.97,0-1.94,0-2.91,0-.24-.12-.36-.35-.36-.29,0-.58-.02-.87-.02-4.48.01-8.97.03-13.45.04-1.29,0-2.59-.03-3.88-.04-.59,0-.63.04-.63.64,0,.79.01,1.59-.01,2.38-.02.46.14.63.61.63,2.99-.02,5.99,0,8.98,0Zm2.01,12.08s0,0,0,0c0-1.2.02-2.4,0-3.59,0-.48.19-.69.65-.71.42-.01.84-.01,1.26-.02.09,0,.21,0,.25-.11.04-.11-.03-.18-.1-.25-1.23-1.39-2.46-2.79-3.69-4.19-.23-.27-.43-.3-.67-.02-.53.61-1.07,1.21-1.61,1.82-.68.76-1.36,1.52-2.04,2.28-.09.1-.24.21-.17.37.07.16.25.11.39.11.32,0,.65,0,.97,0,.7.03.8.13.82.83,0,.11,0,.23,0,.34-.07,2.39.09,4.79-.02,7.18-.01.31.09.45.41.45,1.02,0,2.04-.02,3.03-.29.37-.1.53-.26.53-.67-.02-1.18,0-2.36,0-3.54Zm15.36,10.14h0c0-1.2,0-2.39,0-3.59,0-.33-.1-.53-.47-.52-.94,0-1.88,0-2.82,0-.31,0-.42.14-.41.45.02,1.96.02,3.91.04,5.87,0,.47-.09.93-.03,1.4.04.4.19.57.61.56.79-.02,1.59,0,2.38,0,.6,0,.69-.1.7-.72,0-1.15,0-2.3,0-3.45Z"/>
  <path class="cls-1" d="m29.17,30.41c-.27,0-.55.02-.82,0-.26-.02-.41-.19-.41-.46,0-.26.16-.43.42-.44.53-.01,1.07-.01,1.6,0,.26,0,.42.16.42.44,0,.29-.14.46-.44.47-.26.01-.52,0-.77,0,0,0,0,0,0,0Z"/>
</svg>