<?xml version="1.0" encoding="UTF-8"?>
<svg id="Layer_1" data-name="Layer 1" xmlns="http://www.w3.org/2000/svg" viewBox="0 0 32 32">
  <path d="m-.06,22.92c0-1.7.02-3.41,0-5.11-.01-.86.34-1.5.98-2.01.9-.72,1.96-1.1,3.06-1.39,2.25-.59,4.55-.71,6.87-.53,1.68.13,3.32.43,4.89,1.08.66.28,1.28.64,1.79,1.15.44.44.65.97.65,1.6,0,3.46,0,6.92,0,10.39,0,.64-.22,1.17-.67,1.62-.77.77-1.74,1.18-2.75,1.5-2.22.68-4.5.89-6.81.76-1.59-.08-3.15-.29-4.67-.79-.79-.26-1.54-.58-2.21-1.07-.74-.54-1.15-1.23-1.13-2.19.04-1.67.01-3.33.01-5,0,0,0,0,0,0Zm8.99-8.03c-1.42-.02-2.96.13-4.46.51-.95.24-1.88.52-2.68,1.1-1.01.73-1.01,1.36-.01,2.11.71.53,1.55.79,2.39,1.01,1.96.52,3.95.67,5.98.57,1.56-.08,3.09-.31,4.58-.79.73-.23,1.42-.54,1.98-1.08.52-.5.53-.94.04-1.47-.09-.1-.2-.19-.31-.28-.46-.35-.98-.6-1.52-.79-1.89-.66-3.85-.9-5.98-.89Zm.12,16.01c1.65,0,3.27-.15,4.87-.58.91-.25,1.8-.56,2.57-1.15.29-.22.51-.48.58-.85.02-.09.1-.21,0-.28-.1-.07-.19.04-.27.09-.74.49-1.56.8-2.41,1.04-2.4.67-4.85.81-7.33.59-2.07-.18-4.09-.58-5.89-1.71-.05-.03-.1-.08-.15-.04-.05.04-.03.1-.03.15.02.37.21.64.47.88.52.47,1.16.76,1.81,1,1.86.67,3.8.84,5.77.86Zm-.33-4.27c1.89,0,3.44-.13,4.96-.52.94-.24,1.87-.54,2.67-1.12.35-.25.68-.55.74-1.03,0-.07.06-.16-.01-.21-.09-.07-.15.02-.22.07-.82.54-1.73.89-2.67,1.13-3.05.78-6.12.8-9.2.25-1.35-.24-2.64-.63-3.79-1.41-.04-.03-.09-.08-.15-.04-.06.04-.05.12-.04.18.05.44.31.74.64,1,.6.46,1.29.75,2.01.98,1.76.55,3.57.73,5.07.73Zm-7.71-5.08c-.04.42.11.72.36.99.44.46,1,.74,1.57.97,1.35.54,2.77.77,4.22.91,2.49.23,4.94.05,7.34-.68.72-.22,1.41-.52,2-.99.3-.24.53-.52.57-.92,0-.07.04-.16-.04-.2-.08-.05-.14.02-.2.06-.78.53-1.66.85-2.56,1.1-1.33.37-2.68.55-4.05.62-2.07.11-4.11-.03-6.12-.54-1.08-.27-2.1-.7-3.09-1.32Zm8.03.8c1.84,0,3.66-.19,5.43-.75.83-.26,1.63-.6,2.28-1.23.22-.22.33-.49.37-.79.02-.14-.03-.18-.15-.11-.2.12-.39.24-.6.35-1.54.82-3.22,1.15-4.93,1.33-1.9.2-3.79.19-5.68-.12-1.61-.26-3.18-.61-4.56-1.55-.14-.1-.2-.06-.19.1.01.37.2.65.46.88.45.41.99.68,1.55.9,1.94.74,3.97.95,6.03.96Zm-.66,6.42c2.34,0,3.99-.17,5.61-.61.92-.25,1.8-.57,2.55-1.18.28-.23.52-.51.53-.9,0-.06.04-.14-.02-.18-.08-.05-.14.02-.2.06-.21.15-.44.28-.67.39-1.5.75-3.11,1.07-4.75,1.24-2.36.24-4.72.16-7.04-.38-1.13-.26-2.23-.6-3.19-1.3-.16-.11-.19-.03-.19.11,0,.38.21.66.48.9.55.49,1.21.78,1.9,1.01,1.84.62,3.74.82,5,.83Z"/>
  <path d="m9.57,12.07c-.03.22.05.42.1.62.07.29-.03.53-.31.66-.24.11-.45.06-.63-.19-.21-.28-.23-.62-.23-.95,0-2.67.03-5.35-.02-8.02-.02-1.13.47-1.88,1.37-2.44,1.28-.8,2.69-1.2,4.17-1.45C15.48.05,16.93-.04,18.39.02c2.09.08,4.15.35,6.09,1.22.64.29,1.23.64,1.7,1.18.39.44.58.95.55,1.55-.04,1.13-.05,2.26,0,3.39,0,.16.02.31-.05.46-.16.37-.68.46-.91.12-.13-.2-.21-.16-.37-.05-1.06.72-2.27,1.08-3.51,1.33-2.07.43-4.17.52-6.28.33-1.69-.15-3.34-.45-4.89-1.16-.39-.18-.74-.41-1.15-.64-.03.33.05.59.23.82.27.36.64.61,1.04.82.95.5,1.97.78,3.03.97,2.34.42,4.68.43,7.03.08.56-.08,1.1-.23,1.66-.34.34-.07.6.09.68.41.06.26-.09.52-.39.61-.8.25-1.62.38-2.45.49-1.85.23-3.7.24-5.55,0-1.84-.25-3.63-.64-5.21-1.68-.01,0-.03,0-.07,0-.03.34.08.63.3.88.44.5,1.03.78,1.63,1.03,1.47.6,3.03.84,4.6.95,1.26.09,2.52.06,3.78-.06.61-.06,1.22-.13,1.81-.3.35-.1.72.06.81.41.08.31-.15.57-.56.65-.95.19-1.92.33-2.89.38-2.06.1-4.12.02-6.13-.47-1.06-.26-2.1-.62-3.03-1.2-.08-.05-.16-.09-.24-.13-.01,0-.04,0-.06,0Zm7.8-5.65c1.95,0,3.91-.17,5.82-.79.73-.24,1.44-.54,2.01-1.08.6-.57.59-1.03-.01-1.6-.11-.11-.24-.2-.37-.3-.42-.31-.89-.52-1.38-.7-1.34-.48-2.74-.67-4.16-.79-2.24-.18-4.46-.03-6.64.53-.85.22-1.69.5-2.4,1.05-.12.1-.25.2-.35.31-.42.45-.42.9,0,1.35.46.5,1.07.79,1.69,1.04,1.85.72,3.78.93,5.79.97Zm-7.81-.75c0,.33.08.63.32.88.52.54,1.16.88,1.86,1.13,1.56.55,3.17.79,4.82.87,2.16.1,4.29-.07,6.37-.7.78-.23,1.55-.51,2.18-1.06.28-.25.54-.52.54-.93,0-.06.02-.14-.05-.17-.07-.03-.12.03-.17.06-.2.15-.41.28-.64.39-1.57.77-3.25,1.11-4.97,1.27-1.76.17-3.51.15-5.27-.11-1.68-.24-3.31-.63-4.77-1.55-.06-.04-.11-.1-.22-.07Z"/>
  <path d="m32.07,17.72c0,2.02-.22,4-.87,5.92-.29.86-.67,1.68-1.31,2.36-.48.51-1.06.78-1.78.76-.56-.01-1.13-.01-1.7,0-.73.02-1.32-.26-1.8-.78-.64-.7-1.03-1.54-1.32-2.42-.71-2.11-.91-4.3-.86-6.51.04-1.69.25-3.35.74-4.98.25-.82.6-1.59,1.08-2.3.54-.8,1.24-1.3,2.27-1.22.53.04,1.06.03,1.58,0,.69-.04,1.24.23,1.72.7.64.64,1.01,1.43,1.31,2.26.63,1.75.92,3.71.92,6.19Zm-6.41-.08c0,1.04.06,2.07.22,3.1.17,1.1.42,2.18.87,3.2.25.57.54,1.12,1.04,1.52.33.26.61.28.97.07.41-.24.66-.62.88-1.01.44-.77.7-1.61.89-2.47.48-2.1.57-4.23.38-6.37-.12-1.33-.35-2.64-.82-3.89-.25-.65-.53-1.28-1.04-1.78-.48-.47-.92-.47-1.41-.02-.12.11-.23.24-.33.37-.37.51-.63,1.09-.83,1.68-.61,1.82-.8,3.7-.82,5.6Zm-2.15.03c-.01.56.03,1.11.07,1.66.12,1.52.37,3.01.94,4.43.22.54.49,1.06.89,1.5.18.2.39.37.67.41.11.01.24.08.32-.02.08-.11-.06-.19-.11-.28-.07-.13-.16-.25-.23-.38-.59-1.08-.92-2.26-1.14-3.46-.46-2.59-.47-5.19,0-7.78.26-1.39.62-2.74,1.44-3.92.1-.15.05-.2-.11-.19-.34,0-.6.17-.82.41-.45.47-.74,1.04-.97,1.64-.73,1.93-.93,3.95-.96,5.99Z"/>
  <path d="m18.46,16.06s-.02,0-.03,0c-.42,0-.69-.19-.7-.51-.01-.35.23-.57.66-.59.36-.02.72-.03,1.08-.06.65-.05,1.29-.13,1.92-.26.36-.07.68.1.74.4.07.33-.13.59-.54.67-1.04.2-2.09.28-3.14.35Z"/>
  <path d="m19.36,24.56c-.15,0-.22,0-.29,0-.26-.03-.47-.23-.49-.49-.02-.26.17-.53.43-.56.45-.06.9-.08,1.35-.14.6-.08,1.19-.19,1.77-.33.44-.1.79.26.66.68-.06.21-.21.32-.41.37-1.02.24-2.05.38-3.02.47Z"/>
  <path d="m19.47,22.4c-.18,0-.29,0-.4,0-.27-.01-.47-.21-.49-.47-.02-.26.12-.49.38-.54.24-.05.49-.08.74-.1.62-.05,1.23-.14,1.84-.27.19-.04.39-.08.56.06.16.12.28.28.25.5-.03.24-.19.41-.42.46-.41.09-.81.17-1.23.23-.43.06-.86.1-1.23.13Z"/>
  <path d="m19.27,20.29c-.27.01-.5-.05-.63-.31-.1-.19-.07-.38.06-.55.1-.13.24-.2.4-.21.8-.06,1.6-.18,2.39-.3.27-.04.54.18.59.47.04.24-.14.5-.42.56-.61.15-1.24.19-1.86.27-.17.02-.35.04-.52.06Z"/>
  <path d="m19.37,18.13c-.17,0-.36.05-.52-.05-.21-.13-.32-.32-.27-.56.05-.26.23-.43.5-.45.77-.05,1.53-.16,2.28-.28.34-.05.6.14.65.45.05.29-.14.54-.47.61-.72.14-1.44.25-2.17.28Z"/>
</svg>